<?xml version="1.0" encoding="UTF-8" standalone="no"?><!DOCTYPE svg PUBLIC "-//W3C//DTD SVG 1.1//EN" "http://www.w3.org/Graphics/SVG/1.1/DTD/svg11.dtd"><svg width="100%" height="100%" viewBox="0 0 1301 729" fill="currentColor" version="1.1" xmlns="http://www.w3.org/2000/svg" xmlns:xlink="http://www.w3.org/1999/xlink" xml:space="preserve" xmlns:serif="http://www.serif.com/" style="fill-rule:evenodd;clip-rule:evenodd;stroke-linejoin:round;stroke-miterlimit:2;"><rect id="Artboard1" x="0" y="0" width="1300.91" height="728.599" style="fill:none;"/><g><g><path d="M158.763,223.626c-10.077,0 -18.806,-1.819 -26.187,-5.459c-7.382,-3.639 -13.094,-8.802 -17.136,-15.489c-4.042,-6.687 -6.064,-14.616 -6.064,-23.789l16.17,0c-0,9.468 2.914,16.865 8.743,22.191c5.83,5.326 13.987,7.989 24.474,7.989c9.549,0 17.209,-2.101 22.98,-6.302c5.77,-4.202 8.656,-9.853 8.656,-16.954c-0,-5.503 -1.963,-9.971 -5.888,-13.403c-3.925,-3.433 -10.604,-6.332 -20.036,-8.699l-14.675,-3.64c-13.358,-3.314 -22.995,-7.752 -28.912,-13.314c-5.917,-5.563 -8.875,-12.842 -8.875,-21.836c-0,-7.634 1.86,-14.277 5.58,-19.928c3.72,-5.651 8.978,-10.045 15.774,-13.181c6.795,-3.137 14.734,-4.705 23.814,-4.705c13.65,0 24.532,3.684 32.646,11.051c8.114,7.368 12.347,17.413 12.699,30.136l-15.643,-0c-0.468,-8.285 -3.397,-14.78 -8.787,-19.484c-5.39,-4.705 -12.537,-7.057 -21.442,-7.057c-8.495,0 -15.452,2.086 -20.871,6.258c-5.419,4.172 -8.128,9.542 -8.128,16.111c-0,5.148 2.006,9.335 6.019,12.56c4.013,3.225 10.765,6.051 20.256,8.477l14.851,3.728c12.771,3.195 22.203,7.722 28.296,13.581c6.093,5.858 9.139,13.403 9.139,22.635c0,7.634 -1.977,14.35 -5.931,20.149c-3.955,5.8 -9.491,10.312 -16.609,13.537c-7.118,3.225 -15.422,4.837 -24.913,4.837Z" style="fill-rule:nonzero;"/><path d="M220.305,103.44l0,-14.203l101.058,0l0,14.203l-42.532,-0l-0,118.056l-15.818,0l0,-118.056l-42.708,-0Z" style="fill-rule:nonzero;"/><path d="M391.869,223.626c-10.253,0 -19.202,-2.041 -26.847,-6.124c-7.645,-4.083 -13.577,-9.661 -17.795,-16.732c-4.218,-7.072 -6.327,-15.135 -6.327,-24.189l0,-87.344l15.818,0l-0,86.102c-0,6.45 1.406,12.19 4.218,17.22c2.812,5.03 6.854,8.98 12.127,11.85c5.273,2.87 11.541,4.305 18.806,4.305c7.323,0 13.606,-1.435 18.849,-4.305c5.243,-2.87 9.271,-6.82 12.083,-11.85c2.812,-5.03 4.218,-10.77 4.218,-17.22l0,-86.102l15.818,0l-0,87.344c-0,9.054 -2.109,17.117 -6.327,24.189c-4.218,7.071 -10.135,12.649 -17.751,16.732c-7.616,4.083 -16.58,6.124 -26.89,6.124Z" style="fill-rule:nonzero;"/><path d="M470.986,221.496l-0,-132.259l82.34,0l0,14.203l-66.522,-0l-0,43.228l61.25,-0l-0,14.202l-61.25,0l-0,60.626l-15.818,0Z" style="fill-rule:nonzero;"/><path d="M573.566,221.496l0,-132.259l82.341,0l-0,14.203l-66.523,-0l0,43.228l61.25,-0l-0,14.202l-61.25,0l0,60.626l-15.818,0Z" style="fill-rule:nonzero;"/><path d="M758.048,221.496l-0,-54.501l-48.157,-77.758l18.279,0l26.275,42.785c2.05,3.254 4.027,6.524 5.931,9.808c1.904,3.285 3.794,6.554 5.668,9.809c1.875,-3.255 3.779,-6.524 5.712,-9.809c1.934,-3.284 3.896,-6.554 5.888,-9.808l26.187,-42.785l18.191,0l-48.157,77.758l0,54.501l-15.817,0Z" style="fill-rule:nonzero;"/><path d="M884.257,223.626c-11.541,0 -21.793,-2.929 -30.757,-8.787c-8.963,-5.859 -15.993,-13.921 -21.09,-24.188c-5.097,-10.268 -7.645,-21.999 -7.645,-35.195c-0,-13.315 2.548,-25.106 7.645,-35.373c5.097,-10.267 12.127,-18.33 21.09,-24.188c8.964,-5.859 19.216,-8.788 30.757,-8.788c11.6,0 21.867,2.929 30.801,8.788c8.934,5.858 15.949,13.921 21.046,24.188c5.097,10.267 7.645,22.058 7.645,35.373c0,13.196 -2.548,24.927 -7.645,35.195c-5.097,10.267 -12.112,18.329 -21.046,24.188c-8.934,5.858 -19.201,8.787 -30.801,8.787Zm0,-14.912c7.909,0 15.173,-2.056 21.793,-6.169c6.62,-4.113 11.922,-10.134 15.906,-18.064c3.984,-7.929 5.976,-17.604 5.976,-29.025c-0,-11.481 -1.992,-21.2 -5.976,-29.16c-3.984,-7.959 -9.286,-13.995 -15.906,-18.107c-6.62,-4.113 -13.884,-6.17 -21.793,-6.17c-7.909,0 -15.173,2.057 -21.793,6.17c-6.62,4.112 -11.922,10.148 -15.906,18.107c-3.984,7.96 -5.976,17.679 -5.976,29.16c0,11.421 1.992,21.096 5.976,29.025c3.984,7.93 9.286,13.951 15.906,18.064c6.62,4.113 13.884,6.169 21.793,6.169Z" style="fill-rule:nonzero;"/><path d="M1017.77,223.626c-10.252,0 -19.201,-2.041 -26.846,-6.124c-7.646,-4.083 -13.577,-9.661 -17.795,-16.732c-4.218,-7.072 -6.327,-15.135 -6.327,-24.189l-0,-87.344l15.817,0l0,86.102c0,6.45 1.406,12.19 4.218,17.22c2.812,5.03 6.855,8.98 12.127,11.85c5.273,2.87 11.541,4.305 18.806,4.305c7.323,0 13.606,-1.435 18.849,-4.305c5.244,-2.87 9.271,-6.82 12.084,-11.85c2.812,-5.03 4.218,-10.77 4.218,-17.22l-0,-86.102l15.817,0l0,87.344c0,9.054 -2.109,17.117 -6.327,24.189c-4.218,7.071 -10.135,12.649 -17.751,16.732c-7.616,4.083 -16.579,6.124 -26.89,6.124Z" style="fill-rule:nonzero;"/><path d="M1096.89,221.496l0,-132.259l48.596,0c13.65,0 24.474,3.595 32.47,10.785c7.997,7.19 11.996,16.969 11.996,29.337c-0,9.409 -2.505,17.368 -7.514,23.877c-5.009,6.51 -11.79,11.096 -20.343,13.759l29.438,54.501l-18.454,0l-27.593,-51.927l-32.778,0l0,51.927l-15.818,0Zm15.818,-66.129l32.427,-0c9.08,-0 16.213,-2.323 21.397,-6.968c5.185,-4.646 7.778,-10.992 7.778,-19.04c-0,-8.048 -2.622,-14.38 -7.865,-18.996c-5.244,-4.615 -12.406,-6.923 -21.486,-6.923l-32.251,-0l0,51.927Z" style="fill-rule:nonzero;"/></g><g><path d="M110.425,641.492l-0,-224.969l46.038,-0l0,104.935c5.481,-6.643 10.962,-13.287 16.443,-19.93c5.48,-6.643 11.011,-13.337 16.592,-20.081l55.007,-64.924l55.156,-0l-83.407,97.235l85.65,127.734l-53.064,0l-62.93,-96.48l-29.447,34.576l0,61.904l-46.038,0Z" style="fill-rule:nonzero;"/><rect x="325.121" y="416.523" width="46.039" height="224.969" style="fill-rule:nonzero;"/><path d="M409.175,641.492l-0,-224.969l48.43,-0l71.599,115.051c2.591,4.228 6.079,10.217 10.463,17.968c4.385,7.75 8.77,15.652 13.154,23.704c-0.299,-8.757 -0.498,-17.338 -0.598,-25.743c-0.099,-8.405 -0.149,-14.972 -0.149,-19.703l-0,-111.277l45.889,-0l0,224.969l-48.58,0l-64.872,-104.18c-3.289,-5.134 -7.599,-12.306 -12.93,-21.516c-5.331,-9.21 -11.136,-19.552 -17.414,-31.027c0.399,11.777 0.673,22.245 0.822,31.405c0.15,9.16 0.224,16.155 0.224,20.987l0,104.331l-46.038,0Z" style="fill-rule:nonzero;"/><path d="M714.603,641.492l-78.625,0l0,-224.969l79.522,-0c22.321,-0 41.654,4.58 57.996,13.74c16.343,9.159 28.949,22.144 37.818,38.954c8.869,16.81 13.303,36.69 13.303,59.64c0,23.05 -4.434,43.005 -13.303,59.866c-8.869,16.86 -21.5,29.87 -37.892,39.029c-16.393,9.16 -35.999,13.74 -58.819,13.74Zm-32.586,-39.105l30.194,-0c22.521,-0 39.163,-6.342 49.925,-19.025c10.763,-12.682 16.144,-30.851 16.144,-54.505c-0,-23.655 -5.406,-41.773 -16.219,-54.355c-10.812,-12.583 -27.279,-18.874 -49.401,-18.874l-30.643,0l-0,146.759Z" style="fill-rule:nonzero;"/><path d="M855.458,641.492l-0,-224.969l46.038,-0l0,185.109l101.196,-0l-0,39.86l-147.234,0Z" style="fill-rule:nonzero;"/><path d="M1030.69,641.492l0,-224.969l159.79,-0l0,39.86l-113.751,0l-0,52.09l105.231,0l-0,38.804l-105.231,-0l-0,54.355l113.751,-0l0,39.86l-159.79,0Z" style="fill-rule:nonzero;"/></g><g><path d="M1241.21,192.241l9.24,208.397l-1190.76,52.799l-9.241,-208.397l1190.76,-52.799Z" style="fill:#ffe400;"/><g><path d="M211.292,390.143c-3.27,4.566 -7.649,8.453 -13.136,11.662c-5.487,3.208 -12.594,5.006 -21.32,5.393c-7.411,0.329 -14.2,-0.853 -20.368,-3.545c-6.168,-2.691 -11.522,-6.605 -16.061,-11.742c-4.54,-5.136 -8.168,-11.337 -10.886,-18.602c-2.717,-7.266 -4.272,-15.311 -4.663,-24.136c-0.396,-8.932 0.437,-17.163 2.498,-24.695c2.062,-7.531 5.127,-14.029 9.197,-19.493c4.069,-5.464 9.058,-9.783 14.965,-12.956c5.908,-3.173 12.567,-4.924 19.979,-5.253c8.487,-0.376 15.63,0.682 21.43,3.174c5.799,2.493 10.523,5.707 14.171,9.642l-14.59,19.409c-2.266,-2.487 -4.777,-4.424 -7.534,-5.812c-2.756,-1.387 -6.166,-1.991 -10.231,-1.811c-3.825,0.17 -7.101,1.232 -9.829,3.186c-2.728,1.954 -5.008,4.562 -6.84,7.824c-1.831,3.262 -3.128,7.094 -3.891,11.495c-0.763,4.4 -1.035,9.076 -0.816,14.026c0.22,4.951 0.903,9.557 2.05,13.819c1.147,4.262 2.779,7.964 4.894,11.105c2.116,3.141 4.648,5.563 7.598,7.265c2.95,1.702 6.338,2.468 10.163,2.299c3.825,-0.17 7.134,-1.179 9.926,-3.028c2.793,-1.849 4.973,-3.995 6.542,-6.436l16.752,17.21Z" style="fill-rule:nonzero;"/><path d="M277.469,399.663l-19.053,-44.766l-8.427,0.373l2.019,45.522l-27.613,1.224l-5.068,-114.288l40.702,-1.804c12.312,-0.546 22.003,1.908 29.071,7.364c7.069,5.455 10.857,13.886 11.362,25.294c0.186,4.197 -0.184,7.987 -1.112,11.371c-0.928,3.384 -2.206,6.298 -3.835,8.742c-1.628,2.444 -3.484,4.468 -5.569,6.07c-2.085,1.602 -4.129,2.771 -6.133,3.506l23.958,50.048l-30.302,1.344Zm-5.272,-78.372c-0.129,-2.906 -0.682,-5.254 -1.66,-7.043c-0.977,-1.79 -2.207,-3.191 -3.689,-4.204c-1.483,-1.012 -3.099,-1.669 -4.849,-1.968c-1.75,-0.3 -3.461,-0.413 -5.135,-0.339l-8.965,0.398l1.281,28.895l8.427,-0.374c4.065,-0.18 7.57,-1.495 10.515,-3.944c2.946,-2.449 4.304,-6.256 4.075,-11.421Z" style="fill-rule:nonzero;"/><path d="M321.398,397.715l-5.068,-114.288l28.868,-1.28l5.068,114.288l-28.868,1.28Z" style="fill-rule:nonzero;"/><path d="M460.358,391.553l-2.403,-78.499l-0.717,0.032l-17.859,79.398l-20.261,0.898l-24.098,-77.538l-0.538,0.024l4.375,78.412l-25.999,1.153l-5.068,-114.288l36.219,-1.606l23.705,72.703l0.717,-0.032l16.639,-74.491l38.371,-1.702l5.067,114.288l-28.15,1.248Z" style="fill-rule:nonzero;"/><path d="M511.1,389.303l-5.067,-114.287l61.322,-2.719l1.009,22.76l-33.889,1.503l0.995,22.438l31.199,-1.384l0.945,21.308l-31.199,1.384l1.095,24.697l36.04,-1.598l1.024,23.084l-63.474,2.814Z" style="fill-rule:nonzero;"/><path d="M627.289,384.152l-5.068,-114.288l61.322,-2.719l1.009,22.76l-33.888,1.503l0.995,22.438l31.199,-1.384l0.944,21.308l-31.198,1.384l1.095,24.698l36.04,-1.598l1.023,23.083l-63.473,2.815Z" style="fill-rule:nonzero;"/><path d="M793.494,319.849c0.381,8.609 -0.319,16.458 -2.1,23.546c-1.782,7.087 -4.715,13.202 -8.799,18.343c-4.083,5.141 -9.383,9.204 -15.898,12.189c-6.515,2.984 -14.314,4.678 -23.399,5.081l-35.681,1.582l-5.068,-114.288l35.681,-1.582c9.085,-0.403 17.004,0.594 23.758,2.99c6.753,2.396 12.392,6.001 16.918,10.814c4.525,4.814 7.99,10.698 10.394,17.654c2.404,6.956 3.802,14.847 4.194,23.671Zm-28.868,1.28c-0.511,-11.515 -3.078,-20.108 -7.701,-25.78c-4.623,-5.671 -10.401,-8.353 -17.334,-8.046l-6.993,0.31l3.064,69.089l6.993,-0.31c6.933,-0.307 12.451,-3.49 16.554,-9.548c4.103,-6.059 5.908,-14.63 5.417,-25.715Z" style="fill-rule:nonzero;"/><path d="M813.405,375.899l-5.067,-114.288l28.868,-1.28l5.067,114.288l-28.868,1.28Z" style="fill-rule:nonzero;"/><path d="M900.756,279.51l4.094,92.334l-28.151,1.249l-4.094,-92.335l-23.309,1.034l-0.974,-21.954l74.77,-3.315l0.973,21.953l-23.309,1.034Z" style="fill-rule:nonzero;"/><path d="M939.276,370.318l-5.067,-114.288l28.867,-1.28l5.068,114.288l-28.868,1.28Z" style="fill-rule:nonzero;"/><path d="M1080.53,306.475c0.401,9.04 -0.368,17.349 -2.308,24.929c-1.939,7.58 -4.884,14.1 -8.834,19.558c-3.95,5.459 -8.879,9.775 -14.786,12.948c-5.908,3.174 -12.627,4.927 -20.158,5.261c-7.531,0.334 -14.379,-0.818 -20.544,-3.456c-6.166,-2.638 -11.457,-6.501 -15.875,-11.588c-4.417,-5.088 -7.927,-11.321 -10.53,-18.7c-2.603,-7.378 -4.105,-15.587 -4.506,-24.627c-0.401,-9.04 0.341,-17.295 2.226,-24.764c1.884,-7.47 4.803,-13.907 8.755,-19.312c3.952,-5.405 8.884,-9.667 14.794,-12.787c5.91,-3.119 12.69,-4.849 20.34,-5.188c7.531,-0.334 14.378,0.791 20.541,3.376c6.163,2.584 11.452,6.393 15.867,11.427c4.415,5.033 7.922,11.186 10.52,18.457c2.598,7.271 4.097,15.426 4.498,24.466Zm-29.406,1.304c-0.219,-4.951 -0.841,-9.533 -1.867,-13.746c-1.025,-4.214 -2.414,-7.846 -4.166,-10.895c-1.752,-3.049 -3.863,-5.409 -6.332,-7.078c-2.469,-1.67 -5.318,-2.433 -8.545,-2.29c-3.228,0.143 -6.027,1.157 -8.399,3.041c-2.372,1.884 -4.295,4.423 -5.771,7.615c-1.475,3.192 -2.507,6.931 -3.095,11.217c-0.589,4.285 -0.773,8.903 -0.554,13.853c0.22,4.95 0.813,9.561 1.781,13.831c0.968,4.27 2.328,7.93 4.08,10.979c1.752,3.049 3.894,5.434 6.426,7.155c2.531,1.721 5.411,2.51 8.638,2.367c3.228,-0.143 5.996,-1.183 8.306,-3.118c2.309,-1.936 4.202,-4.5 5.677,-7.692c1.475,-3.192 2.536,-6.96 3.182,-11.301c0.646,-4.342 0.859,-8.988 0.639,-13.938Z" style="fill-rule:nonzero;"/><path d="M1155.34,360.738l-32.49,-68.27l-0.538,0.024l3.802,69.541l-25.64,1.137l-5.068,-114.287l31.557,-1.4l32.355,69.246l0.538,-0.023l-3.666,-70.519l24.744,-1.097l5.067,114.288l-30.661,1.36Z" style="fill-rule:nonzero;"/></g></g></g></svg>